<svg width="748" height="218" viewBox="0 0 748 218" fill="none" xmlns="http://www.w3.org/2000/svg">
<path d="M65.1398 109.417C77.0998 110.247 85.4998 111.007 90.4598 113.677C88.7798 116.267 86.1698 119.397 82.3998 123.727C81.7098 124.517 81.7498 125.717 82.4898 126.457C83.2298 127.197 84.4298 127.237 85.2198 126.557C89.5598 122.777 92.6898 120.177 95.2698 118.487C97.9398 123.447 98.6998 131.837 99.5298 143.807C99.5998 144.847 100.48 145.667 101.53 145.667C102.58 145.667 103.45 144.847 103.53 143.807C104.36 131.847 105.12 123.447 107.79 118.487C110.37 120.167 113.5 122.777 117.84 126.547C118.63 127.237 119.83 127.197 120.57 126.457C121.31 125.717 121.35 124.517 120.66 123.727C116.89 119.397 114.28 116.267 112.6 113.677C117.56 111.007 125.95 110.247 137.92 109.417C138.96 109.347 139.78 108.467 139.78 107.417C139.78 106.367 138.96 105.497 137.92 105.417C125.96 104.587 117.56 103.827 112.6 101.157C114.28 98.577 116.89 95.447 120.66 91.107C121.35 90.317 121.31 89.117 120.57 88.377C119.83 87.637 118.63 87.597 117.84 88.287C113.51 92.057 110.38 94.667 107.79 96.347C105.12 91.387 104.36 82.987 103.53 71.027C103.46 69.987 102.58 69.167 101.53 69.167C100.48 69.167 99.6098 69.987 99.5298 71.027C98.6998 82.987 97.9398 91.387 95.2698 96.347C92.6898 94.667 89.5598 92.057 85.2198 88.277C84.4298 87.587 83.2298 87.627 82.4898 88.367C81.7498 89.107 81.7098 90.307 82.3998 91.097C86.1698 95.427 88.7798 98.557 90.4598 101.147C85.4998 103.817 77.1098 104.577 65.1398 105.407C64.0998 105.477 63.2798 106.357 63.2798 107.407C63.2798 108.457 64.0898 109.337 65.1398 109.417Z" fill="#0A1F8F"/>
<path d="M38.44 128.347C39.27 127.747 39.76 127.017 39.9 126.157C40.04 125.297 39.9 124.527 39.48 123.837C39.06 123.147 38.46 122.697 37.68 122.487C36.89 122.277 35.99 122.497 34.97 123.147C33.3 124.347 31.54 125.227 29.66 125.787C27.79 126.337 25.83 126.617 23.8 126.617C18.53 126.617 14.5 124.987 11.73 121.727C8.95001 118.467 7.57001 113.847 7.57001 107.887C7.57001 101.927 8.96001 97.3169 11.73 94.0769C14.5 90.8369 18.53 89.2169 23.8 89.2169C25.84 89.2169 27.77 89.4969 29.59 90.0469C31.42 90.6069 33.12 91.4569 34.69 92.6169C35.71 93.3069 36.63 93.5469 37.47 93.3069C38.3 93.0769 38.94 92.6069 39.38 91.8869C39.82 91.1669 39.96 90.3569 39.8 89.4569C39.64 88.5569 39.05 87.7769 38.03 87.1369C36.18 85.7469 33.99 84.6869 31.47 83.9469C28.95 83.2069 26.32 82.8369 23.59 82.8369C18.64 82.8369 14.41 83.8569 10.89 85.8869C7.37 87.9269 4.68 90.8169 2.81 94.5569C0.939998 98.3069 0 102.747 0 107.877C0 113.007 0.939998 117.467 2.81 121.237C4.68 125.007 7.38 127.907 10.89 129.947C14.4 131.987 18.64 132.997 23.59 132.997C26.41 132.997 29.11 132.607 31.67 131.817C34.24 131.027 36.5 129.867 38.44 128.347Z" fill="#0A1F8F"/>
<path d="M193.1 77.957C190.86 77.957 189.57 79.267 189.57 81.537V104.447L170.99 79.957C170.49 79.247 170.02 78.757 169.56 78.457C169.04 78.117 168.38 77.957 167.54 77.957C166.53 77.957 165.66 78.317 165.04 78.987C164.43 79.647 164.11 80.557 164.11 81.697V114.227C164.11 116.537 165.42 117.867 167.69 117.867C169.9 117.867 171.17 116.537 171.17 114.227V91.267L189.78 115.837C190.32 116.537 190.81 117.027 191.3 117.337C191.85 117.687 192.56 117.857 193.42 117.857C194.37 117.857 195.18 117.507 195.78 116.837C196.35 116.197 196.64 115.337 196.64 114.277V81.537C196.63 79.267 195.34 77.957 193.1 77.957Z" fill="#0A1F8F"/>
<path d="M254.84 117.167C252.7 118.767 249.39 119.557 244.9 119.537C241.79 119.527 238.92 119.157 236.28 118.437C233.65 117.717 231.15 116.587 228.78 115.047C227.73 114.357 226.79 114.167 225.97 114.487C225.15 114.797 224.54 115.367 224.14 116.177C223.74 116.997 223.64 117.887 223.85 118.867C224.06 119.847 224.66 120.677 225.66 121.367C228.13 123.067 231.04 124.337 234.39 125.197C237.73 126.057 241.23 126.487 244.87 126.507C249.25 126.527 253.02 125.867 256.19 124.537C259.36 123.207 261.82 121.327 263.57 118.907C265.32 116.487 266.2 113.647 266.21 110.377C266.23 106.477 264.94 103.377 262.37 101.067C259.79 98.7668 255.87 97.0468 250.6 95.9168L242.22 94.1468C238.9 93.4468 236.53 92.4368 235.11 91.1168C233.69 89.7968 232.99 88.0269 233 85.8069C233.01 82.9069 234.17 80.5868 236.47 78.8568C238.77 77.1268 241.87 76.2668 245.77 76.2868C248.3 76.2968 250.65 76.6068 252.81 77.2268C254.97 77.8468 257.08 78.8368 259.13 80.2168C260.23 80.9068 261.21 81.1268 262.05 80.8568C262.89 80.5968 263.53 80.0868 263.95 79.3168C264.37 78.5568 264.51 77.7268 264.35 76.8268C264.2 75.9268 263.67 75.1668 262.78 74.5268C260.52 72.7768 257.95 71.4768 255.08 70.6168C252.21 69.7668 249.14 69.3268 245.87 69.3168C241.76 69.2968 238.12 69.9868 234.95 71.3668C231.78 72.7568 229.31 74.7068 227.53 77.2268C225.75 79.7468 224.86 82.6769 224.85 85.9969C224.83 90.1069 226.05 93.3868 228.49 95.8168C230.93 98.2568 234.66 100.007 239.66 101.077L248.12 102.847C251.7 103.597 254.26 104.597 255.78 105.847C257.3 107.097 258.06 108.767 258.05 110.877C258.05 113.477 256.98 115.567 254.84 117.167Z" fill="#0A1F8F"/>
<path d="M314.04 161.128C317.18 161.128 318.75 159.498 318.75 156.228V103.378H338.34C341.17 103.378 342.59 102.028 342.59 99.3176C342.59 96.6676 341.17 95.3477 338.34 95.3477H289.65C286.88 95.3477 285.49 96.6776 285.49 99.3176C285.49 102.028 286.88 103.378 289.65 103.378H309.24V156.228C309.23 159.498 310.83 161.128 314.04 161.128Z" fill="#0A1F8F"/>
<path d="M369.95 119.507C371.82 119.507 372.94 118.387 372.94 116.517C372.94 114.707 371.82 113.627 369.95 113.627H353.09C350.81 113.627 349.5 114.937 349.5 117.217V144.607C349.5 146.887 350.81 148.197 353.09 148.197H369.95C371.82 148.197 372.94 147.097 372.94 145.257C372.94 143.417 371.82 142.317 369.95 142.317H356.12V133.597H368.93C370.8 133.597 371.92 132.497 371.92 130.657C371.92 128.817 370.8 127.717 368.93 127.717H356.12V119.507H369.95Z" fill="#0A1F8F"/>
<path d="M404.01 84.4368C401.74 84.4168 400.6 85.5668 400.58 87.8768L400.24 127.307C400.22 129.617 401.36 130.787 403.68 130.807L427.29 131.007C429.29 131.027 430.31 130.057 430.32 128.087C430.34 126.167 429.34 125.197 427.34 125.187L407.07 125.007L407.39 87.9268C407.4 85.6268 406.28 84.4568 404.01 84.4368Z" fill="#0A1F8F"/>
<path d="M446.9 116.498C447.96 116.498 448.81 116.218 449.45 115.658C450.09 115.098 450.67 114.188 451.2 112.918L455.73 102.258H484.13L488.74 112.918C489.27 114.138 489.88 115.038 490.57 115.618C491.26 116.198 492.19 116.498 493.35 116.498C494.89 116.498 495.94 115.998 496.49 114.988C497.04 113.978 496.98 112.708 496.29 111.168L474.73 62.8076C474.2 61.5876 473.52 60.6976 472.7 60.1476C471.88 59.5876 470.99 59.3076 470.04 59.3076C468.98 59.3076 468.05 59.5876 467.26 60.1476C466.46 60.7076 465.8 61.5976 465.27 62.8076L443.72 111.168C443.03 112.658 442.99 113.908 443.6 114.948C444.21 115.988 445.31 116.498 446.9 116.498ZM469.89 69.0176H470.05L481.34 95.5876H458.67L469.89 69.0176Z" fill="#0A1F8F"/>
<path d="M536.04 90.7068C540.05 86.6868 545.55 84.9368 552.55 85.4568C555.25 85.6568 557.79 86.2168 560.16 87.1368C562.53 88.0568 564.7 89.3569 566.68 91.0469C567.96 92.0669 569.17 92.4669 570.3 92.2469C571.43 92.0269 572.32 91.4569 572.98 90.5469C573.63 89.6369 573.9 88.5769 573.77 87.3669C573.64 86.1569 572.94 85.0669 571.65 84.1069C569.33 82.0769 566.53 80.4468 563.26 79.2168C559.98 77.9868 556.54 77.2368 552.91 76.9568C546.34 76.4668 540.62 77.3969 535.75 79.7569C530.88 82.1069 527.02 85.6868 524.16 90.4668C521.3 95.2568 519.62 101.057 519.11 107.877C518.6 114.697 519.4 120.697 521.52 125.887C523.63 131.077 526.92 135.197 531.39 138.247C535.86 141.297 541.38 143.067 547.95 143.557C551.7 143.837 555.31 143.577 558.8 142.797C562.29 142.007 565.4 140.697 568.13 138.857C569.3 138.137 570.01 137.227 570.28 136.097C570.55 134.977 570.44 133.927 569.96 132.967C569.48 132.007 568.72 131.347 567.7 130.987C566.67 130.637 565.46 130.837 564.04 131.597C561.71 133.027 559.27 134.017 556.73 134.567C554.19 135.117 551.56 135.297 548.86 135.087C541.86 134.567 536.68 131.997 533.31 127.397C529.95 122.787 528.56 116.527 529.15 108.607C529.74 100.707 532.04 94.7368 536.04 90.7068Z" fill="#0A1F8F"/>
<path d="M609.44 131.237C611.93 131.237 613.36 129.787 613.37 127.257L613.52 92.5969C613.53 91.3269 613.19 90.3369 612.51 89.6469C611.83 88.9469 610.85 88.5869 609.6 88.5869C609.59 88.5869 609.58 88.5869 609.57 88.5869C607.08 88.5869 605.65 90.0369 605.64 92.5669L605.49 127.227C605.48 128.497 605.82 129.487 606.5 130.177C607.18 130.877 608.16 131.237 609.42 131.237C609.42 131.237 609.43 131.237 609.44 131.237Z" fill="#0A1F8F"/>
<path d="M680.06 75.9274C676.55 73.8574 672.44 72.8174 667.73 72.8174C662.97 72.8174 658.85 73.8574 655.36 75.9274C651.87 77.9974 649.18 80.9474 647.27 84.7574C645.36 88.5774 644.41 93.0974 644.41 98.3274C644.41 103.507 645.36 108.017 647.27 111.857C649.18 115.697 651.87 118.667 655.36 120.757C658.85 122.857 662.97 123.897 667.73 123.897C672.44 123.897 676.55 122.847 680.06 120.757C683.57 118.657 686.28 115.697 688.19 111.857C690.1 108.017 691.05 103.487 691.05 98.2574C691.05 93.0774 690.1 88.5774 688.19 84.7574C686.27 80.9474 683.57 78.0074 680.06 75.9274ZM679.28 112.497C676.52 115.867 672.67 117.547 667.73 117.547C662.78 117.547 658.93 115.867 656.18 112.497C653.43 109.127 652.05 104.407 652.05 98.3274C652.05 92.2474 653.43 87.5374 656.18 84.1974C658.94 80.8574 662.79 79.1774 667.73 79.1774C672.72 79.1774 676.58 80.8474 679.32 84.1974C682.05 87.5474 683.42 92.2574 683.42 98.3274C683.42 104.397 682.04 109.127 679.28 112.497Z" fill="#0A1F8F"/>
<path d="M746.99 98.567C746.99 97.447 746.68 96.557 746.07 95.937C745.45 95.307 744.57 95.0071 743.46 94.9971C741.22 94.9971 739.94 96.307 739.94 98.577L739.98 121.407L721.42 97.037C720.92 96.337 720.45 95.8471 719.99 95.5471C719.47 95.2071 718.81 95.0471 717.98 95.0471H717.97C716.95 95.0471 716.11 95.397 715.48 96.077C714.87 96.737 714.56 97.647 714.56 98.777L714.61 131.197C714.61 132.337 714.93 133.237 715.54 133.867C716.16 134.497 717.05 134.817 718.18 134.817H718.19C719.3 134.817 720.16 134.487 720.77 133.837C721.36 133.207 721.66 132.317 721.65 131.177L721.61 108.297L740.19 132.747C740.72 133.447 741.22 133.937 741.71 134.237C742.25 134.587 742.96 134.757 743.81 134.757H743.82C744.77 134.757 745.58 134.397 746.17 133.737C746.74 133.097 747.02 132.237 747.02 131.177L746.99 98.567Z" fill="#0A1F8F"/>
<path d="M680.53 44.9468C680.26 44.7768 679.91 44.8068 679.66 45.0168L667.19 55.4168L667.04 55.5368C667.01 55.5568 666.99 55.5868 666.97 55.6068C665.82 56.6468 665.08 57.9968 664.8 59.5068C664.12 63.2768 666.63 66.9068 670.4 67.5868C670.81 67.6568 671.22 67.6968 671.63 67.6968C673.86 67.6968 675.99 66.6168 677.3 64.7668C677.34 64.7268 677.37 64.6768 677.4 64.6268L677.41 64.6068C677.58 64.3568 677.74 64.0768 677.86 63.8268L685.88 49.8768C686.03 49.6068 686.01 49.2668 685.81 49.0268C685.61 48.7868 685.29 48.6868 685 48.7768L683.54 49.2368L685.29 45.7368C685.44 45.4368 685.37 45.0768 685.13 44.8468C684.88 44.6168 684.52 44.5868 684.23 44.7568L680.62 46.9668L680.88 45.7568C680.94 45.4368 680.81 45.1168 680.53 44.9468Z" fill="#0A1F8F"/>
<path d="M636.26 128.047C573.08 155.497 485.97 179.177 390.96 194.717C336.88 203.567 285.17 208.907 238.64 210.987C238.77 209.097 238.18 207.147 236.84 205.597C234.15 202.487 229.44 202.147 226.32 204.837C224.33 206.557 223.48 209.107 223.83 211.537C177.73 212.937 137.33 210.967 105.56 205.877C105.69 204.767 105.39 203.617 104.61 202.707C103.13 200.997 100.54 200.807 98.8301 202.287C98.1401 202.887 97.7101 203.667 97.5301 204.497C58.3001 197.197 34.0301 184.657 31.2001 167.387C29.0801 154.447 39.0201 140.047 60.7201 124.577C60.9401 124.417 61.0001 124.107 60.8401 123.877C60.6801 123.647 60.3701 123.597 60.1401 123.757C38.1001 139.457 28.0301 154.187 30.2101 167.537C33.0401 184.807 56.5101 197.867 97.4301 205.467C97.4501 206.387 97.7601 207.307 98.4101 208.057C99.8901 209.767 102.48 209.957 104.19 208.477C104.72 208.017 105.09 207.447 105.32 206.837C116.4 208.617 128.61 210.037 141.93 211.057C158.82 212.357 176.96 212.997 196.1 212.997C205.19 212.997 214.53 212.837 224.05 212.547C224.34 213.557 224.84 214.517 225.57 215.357C228.26 218.467 232.97 218.807 236.09 216.117C237.37 215.007 238.17 213.557 238.5 212.017C285.96 209.907 337.86 204.417 391.13 195.707C486.21 180.157 573.41 156.457 636.67 128.967C636.92 128.857 637.04 128.567 636.93 128.307C636.81 128.047 636.52 127.937 636.26 128.047Z" fill="#0A1F8F"/>
<path d="M724.26 49.0272C720.53 26.2272 680.86 10.7772 612.55 5.51715C606.33 5.03715 599.93 4.64717 593.38 4.34717C593.44 3.31717 593.12 2.25718 592.39 1.41718C590.91 -0.292823 588.32 -0.482837 586.61 0.997163C585.69 1.78716 585.23 2.89715 585.21 4.01715C543.09 2.57715 494.9 4.64716 443.74 10.0272C443.49 8.81716 442.94 7.65717 442.08 6.65717C439.38 3.54717 434.68 3.20716 431.56 5.89716C429.83 7.39716 428.95 9.52717 428.99 11.6572C407.49 14.1572 385.54 17.2272 363.35 20.8572C276.89 34.9972 195.35 56.3372 133.75 80.9572C133.49 81.0572 133.37 81.3472 133.47 81.6072C133.57 81.8672 133.86 81.9871 134.12 81.8871C195.66 57.2971 277.12 35.9772 363.51 21.8472C385.68 18.2172 407.61 15.1572 429.08 12.6572C429.28 14.0072 429.85 15.3072 430.81 16.4172C433.51 19.5272 438.21 19.8672 441.33 17.1772C443.17 15.5772 444.04 13.2772 443.88 11.0172C495.03 5.63715 543.23 3.56715 585.32 5.01715C585.47 5.64715 585.74 6.24715 586.19 6.76715C587.67 8.47715 590.26 8.66717 591.96 7.18717C592.55 6.67717 592.95 6.02716 593.17 5.33716C599.76 5.63716 606.2 6.02717 612.46 6.50717C680.26 11.7272 719.62 26.8872 723.26 49.1872C725.02 59.9672 718.33 71.8572 703.37 84.5472C703.16 84.7272 703.13 85.0372 703.31 85.2472C703.41 85.3672 703.55 85.4272 703.69 85.4272C703.8 85.4272 703.92 85.3872 704.01 85.3072C719.27 72.3872 726.08 60.1772 724.26 49.0272Z" fill="#0A1F8F"/>
<path d="M124.83 140.797C125.11 140.517 125.44 140.307 125.81 140.177C126.18 140.047 126.55 139.987 126.94 139.987C127.52 139.987 128.03 140.047 128.48 140.177C128.93 140.307 129.33 140.457 129.67 140.637L130.39 138.617C130.31 138.567 130.17 138.487 129.97 138.397C129.78 138.297 129.54 138.207 129.25 138.117C128.96 138.027 128.63 137.947 128.24 137.877C127.86 137.807 127.43 137.777 126.96 137.777C126.15 137.777 125.4 137.907 124.7 138.157C124 138.407 123.41 138.787 122.91 139.287C122.41 139.787 122.01 140.387 121.73 141.107C121.44 141.827 121.3 142.647 121.3 143.567C121.3 145.417 121.77 146.837 122.72 147.837C123.66 148.837 125.04 149.337 126.84 149.337C127.68 149.337 128.42 149.247 129.06 149.077C129.7 148.907 130.2 148.717 130.55 148.497L129.86 146.497C129.72 146.557 129.57 146.627 129.4 146.707C129.23 146.777 129.03 146.847 128.81 146.907C128.59 146.967 128.33 147.017 128.04 147.057C127.75 147.097 127.43 147.117 127.06 147.117C126.48 147.117 125.99 147.027 125.59 146.837C125.18 146.647 124.86 146.397 124.61 146.077C124.36 145.757 124.18 145.377 124.07 144.937C123.96 144.497 123.9 144.017 123.9 143.507C123.9 142.867 123.99 142.327 124.16 141.877C124.33 141.447 124.55 141.077 124.83 140.797Z" fill="#0A1F8F"/>
<path d="M138.47 143.567C138.47 144.517 138.61 145.347 138.9 146.067C139.19 146.787 139.58 147.387 140.08 147.877C140.58 148.367 141.17 148.727 141.84 148.977C142.51 149.227 143.23 149.347 143.98 149.347C144.76 149.347 145.49 149.227 146.16 148.977C146.83 148.727 147.42 148.367 147.91 147.877C148.4 147.397 148.79 146.787 149.07 146.067C149.35 145.347 149.49 144.517 149.49 143.567C149.49 142.617 149.35 141.787 149.06 141.067C148.77 140.347 148.38 139.737 147.88 139.247C147.38 138.757 146.79 138.387 146.12 138.147C145.45 137.897 144.73 137.777 143.98 137.777C143.24 137.777 142.54 137.897 141.88 138.147C141.21 138.397 140.63 138.757 140.12 139.247C139.61 139.737 139.21 140.347 138.91 141.067C138.62 141.787 138.47 142.617 138.47 143.567ZM141.25 142.107C141.38 141.667 141.58 141.287 141.83 140.967C142.08 140.657 142.39 140.407 142.75 140.227C143.11 140.047 143.53 139.967 144 139.967C144.46 139.967 144.87 140.057 145.24 140.227C145.61 140.397 145.92 140.637 146.17 140.957C146.42 141.267 146.61 141.647 146.75 142.097C146.88 142.537 146.95 143.037 146.95 143.577C146.95 144.117 146.88 144.607 146.75 145.047C146.62 145.487 146.42 145.857 146.17 146.177C145.92 146.487 145.61 146.737 145.24 146.907C144.87 147.077 144.46 147.167 144 147.167C143.53 147.167 143.11 147.077 142.75 146.907C142.39 146.737 142.08 146.497 141.83 146.177C141.58 145.867 141.39 145.487 141.25 145.047C141.12 144.607 141.05 144.117 141.05 143.577C141.05 143.037 141.12 142.547 141.25 142.107Z" fill="#0A1F8F"/>
<path d="M162 139.327C161.57 138.817 161.18 138.387 160.83 138.027H158.8V149.117H161.26V141.857C162.2 142.957 163.08 144.127 163.92 145.357C164.76 146.587 165.52 147.847 166.24 149.117H168.34V138.027H165.86V144.567C165.48 143.987 165.07 143.387 164.63 142.767C164.19 142.147 163.75 141.537 163.31 140.957C162.86 140.387 162.42 139.847 162 139.327Z" fill="#0A1F8F"/>
<path d="M182.54 146.887C182.4 146.987 182.22 147.067 181.99 147.127C181.76 147.187 181.47 147.217 181.12 147.217C180.42 147.217 179.82 147.147 179.34 146.997C178.86 146.847 178.45 146.687 178.12 146.507L177.42 148.487C177.57 148.577 177.75 148.667 177.97 148.757C178.19 148.847 178.45 148.947 178.75 149.027C179.05 149.117 179.4 149.187 179.8 149.247C180.19 149.307 180.64 149.337 181.13 149.337C182.59 149.337 183.68 149.047 184.41 148.477C185.14 147.907 185.5 147.107 185.5 146.067C185.5 145.537 185.43 145.077 185.29 144.707C185.15 144.337 184.94 144.007 184.66 143.727C184.38 143.447 184.02 143.207 183.6 142.997C183.18 142.787 182.67 142.577 182.1 142.367C181.82 142.267 181.57 142.177 181.34 142.087C181.11 141.997 180.91 141.897 180.73 141.787C180.55 141.677 180.42 141.547 180.32 141.407C180.22 141.267 180.18 141.097 180.18 140.897C180.18 140.557 180.31 140.307 180.57 140.137C180.83 139.967 181.26 139.887 181.86 139.887C182.39 139.887 182.85 139.947 183.23 140.067C183.61 140.187 183.95 140.327 184.26 140.487L184.98 138.517C184.63 138.327 184.18 138.147 183.64 137.987C183.1 137.827 182.45 137.747 181.7 137.747C181.07 137.747 180.5 137.827 180 137.977C179.5 138.127 179.07 138.357 178.72 138.637C178.37 138.927 178.1 139.277 177.9 139.687C177.71 140.097 177.61 140.557 177.61 141.067C177.61 141.577 177.7 142.017 177.88 142.367C178.06 142.717 178.3 143.027 178.58 143.277C178.86 143.527 179.19 143.737 179.56 143.897C179.92 144.067 180.28 144.207 180.65 144.337C181.48 144.617 182.07 144.877 182.41 145.117C182.75 145.357 182.92 145.657 182.92 146.017C182.92 146.187 182.89 146.347 182.84 146.477C182.77 146.667 182.68 146.787 182.54 146.887Z" fill="#0A1F8F"/>
<path d="M194.44 138.037V144.937C194.44 145.587 194.53 146.187 194.7 146.717C194.88 147.257 195.15 147.717 195.52 148.107C195.89 148.497 196.35 148.797 196.92 149.017C197.49 149.237 198.16 149.347 198.94 149.347C199.73 149.347 200.41 149.237 200.99 149.027C201.57 148.817 202.04 148.517 202.41 148.127C202.78 147.737 203.06 147.267 203.24 146.727C203.42 146.187 203.51 145.587 203.51 144.937V138.037H201.01V144.727C201.01 145.627 200.82 146.257 200.44 146.627C200.06 146.997 199.57 147.187 198.96 147.187C198.66 147.187 198.39 147.147 198.14 147.057C197.89 146.967 197.68 146.827 197.5 146.637C197.32 146.437 197.19 146.187 197.08 145.867C196.97 145.547 196.93 145.167 196.93 144.727V138.037H194.44Z" fill="#0A1F8F"/>
<path d="M213.11 138.037V149.127H220.52V146.977H215.61V138.037H213.11Z" fill="#0A1F8F"/>
<path d="M232.95 149.127V140.167H236.3V138.037H227.11V140.167H230.46V149.127H232.95Z" fill="#0A1F8F"/>
<path d="M251.91 138.147C251.24 137.897 250.52 137.777 249.77 137.777C249.03 137.777 248.33 137.897 247.67 138.147C247 138.397 246.42 138.757 245.91 139.247C245.4 139.737 245 140.347 244.7 141.067C244.4 141.787 244.25 142.617 244.25 143.567C244.25 144.517 244.39 145.347 244.68 146.067C244.97 146.787 245.36 147.387 245.86 147.877C246.36 148.367 246.95 148.727 247.62 148.977C248.29 149.227 249.01 149.347 249.76 149.347C250.54 149.347 251.27 149.227 251.94 148.977C252.61 148.727 253.2 148.367 253.69 147.877C254.18 147.397 254.57 146.787 254.85 146.067C255.13 145.347 255.27 144.517 255.27 143.567C255.27 142.617 255.13 141.787 254.84 141.067C254.55 140.347 254.16 139.737 253.66 139.247C253.17 138.757 252.59 138.387 251.91 138.147ZM252.51 145.047C252.38 145.487 252.18 145.857 251.93 146.177C251.68 146.487 251.37 146.737 251 146.907C250.63 147.077 250.22 147.167 249.76 147.167C249.29 147.167 248.87 147.077 248.51 146.907C248.15 146.737 247.84 146.497 247.59 146.177C247.34 145.867 247.15 145.487 247.01 145.047C246.88 144.607 246.81 144.117 246.81 143.577C246.81 143.047 246.88 142.557 247.01 142.117C247.14 141.677 247.34 141.297 247.59 140.977C247.84 140.667 248.15 140.417 248.51 140.237C248.87 140.057 249.29 139.977 249.76 139.977C250.22 139.977 250.63 140.067 251 140.237C251.37 140.407 251.68 140.647 251.93 140.967C252.18 141.277 252.37 141.657 252.51 142.107C252.64 142.547 252.71 143.047 252.71 143.587C252.71 144.117 252.65 144.607 252.51 145.047Z" fill="#0A1F8F"/>
<path d="M272.43 143.447C272.79 142.957 272.97 142.327 272.97 141.547C272.97 140.297 272.53 139.377 271.64 138.787C270.76 138.197 269.48 137.897 267.82 137.897C267.36 137.897 266.84 137.917 266.26 137.957C265.68 137.997 265.12 138.077 264.57 138.177V149.107H267.07V145.057H268.3C268.51 145.317 268.73 145.597 268.94 145.917C269.15 146.237 269.37 146.567 269.59 146.917C269.81 147.267 270.02 147.627 270.23 148.007C270.44 148.377 270.65 148.747 270.85 149.107H273.64C273.45 148.697 273.24 148.287 273.02 147.867C272.8 147.447 272.56 147.037 272.32 146.647C272.08 146.257 271.84 145.887 271.59 145.527C271.34 145.167 271.11 144.857 270.89 144.577C271.56 144.317 272.08 143.937 272.43 143.447ZM269.79 142.737C269.38 142.967 268.71 143.087 267.77 143.087H267.07V140.077C267.2 140.067 267.33 140.057 267.48 140.047C267.62 140.037 267.79 140.027 267.97 140.027C268.77 140.027 269.38 140.137 269.79 140.367C270.2 140.597 270.41 140.987 270.41 141.527C270.39 142.107 270.19 142.507 269.79 142.737Z" fill="#0A1F8F"/>
<path d="M284.1 142.947C283.74 143.847 283.38 144.797 283 145.807C282.62 146.817 282.23 147.927 281.81 149.117H284.4C284.52 148.737 284.65 148.337 284.79 147.937C284.93 147.527 285.07 147.127 285.21 146.717H289.54C289.68 147.117 289.82 147.527 289.96 147.927C290.1 148.337 290.24 148.727 290.36 149.117H293.03C292.61 147.927 292.22 146.817 291.84 145.807C291.46 144.797 291.1 143.837 290.74 142.947C290.38 142.057 290.02 141.197 289.67 140.397C289.32 139.587 288.96 138.807 288.59 138.037H286.22C285.84 138.807 285.48 139.587 285.14 140.397C284.82 141.197 284.46 142.047 284.1 142.947ZM286.31 143.367C286.48 142.927 286.63 142.527 286.77 142.167C286.91 141.807 287.03 141.487 287.14 141.207C287.25 140.927 287.33 140.707 287.38 140.547C287.45 140.707 287.53 140.917 287.64 141.197C287.75 141.477 287.87 141.797 288.02 142.157C288.16 142.517 288.31 142.917 288.47 143.357C288.63 143.797 288.79 144.257 288.96 144.737H285.79C285.97 144.257 286.14 143.797 286.31 143.367Z" fill="#0A1F8F"/>
</svg>
